<?xml version="1.0" encoding="utf-8"?>
<!-- Generator: Adobe Illustrator 17.1.0, SVG Export Plug-In . SVG Version: 6.00 Build 0)  -->
<!DOCTYPE svg PUBLIC "-//W3C//DTD SVG 1.1//EN" "http://www.w3.org/Graphics/SVG/1.1/DTD/svg11.dtd">
<svg version="1.1" id="Layer_1" xmlns="http://www.w3.org/2000/svg" xmlns:xlink="http://www.w3.org/1999/xlink" x="0px" y="0px"
	 viewBox="0 0 504 288" enable-background="new 0 0 504 288" xml:space="preserve">
<g>
	<g>
		<defs>
			<rect id="SVGID_1_" x="0" y="0" width="504" height="288"/>
		</defs>
		<radialGradient id="SVGID_2_" cx="166.1103" cy="-19.9449" r="523.3615" gradientUnits="userSpaceOnUse">
			<stop  offset="0.2536" style="stop-color:#FFFFFF"/>
			<stop  offset="0.6053" style="stop-color:#FCFCFC"/>
			<stop  offset="0.8783" style="stop-color:#F2F2F2"/>
			<stop  offset="1" style="stop-color:#EBEBEB"/>
		</radialGradient>
		<use xlink:href="#SVGID_1_"  overflow="visible" fill="url(#SVGID_2_)"/>
		<clipPath id="SVGID_3_">
			<use xlink:href="#SVGID_1_"  overflow="visible"/>
		</clipPath>
		<g clip-path="url(#SVGID_3_)">
			<circle fill="#9A9DA3" cx="473.9" cy="112.4" r="4.4"/>
			<circle fill="#9A9DA3" cx="511.4" cy="120.6" r="2.1"/>
			<circle fill="#9A9DA3" cx="419.8" cy="212.2" r="1.4"/>
			<circle fill="#9A9DA3" cx="517.6" cy="160.4" r="2.2"/>
			<circle fill="#9A9DA3" cx="465.3" cy="28" r="2.9"/>
			<circle fill="#9A9DA3" cx="253.4" cy="262.4" r="1.3"/>
			<circle fill="#9A9DA3" cx="320.2" cy="228.7" r="2.8"/>
			<circle fill="#DBDBDB" cx="509.6" cy="78.5" r="4"/>
			<circle fill="#DBDBDB" cx="392.2" cy="106.6" r="3.3"/>
			<circle fill="#DBDBDB" cx="391.6" cy="285.5" r="1.4"/>
			<circle fill="#DBDBDB" cx="226.8" cy="285.1" r="3.1"/>
			<circle fill="#DBDBDB" cx="487.8" cy="263.7" r="2.6"/>
			<circle fill="#DBDBDB" cx="372.4" cy="172.3" r="1.9"/>
			<circle fill="#DBDBDB" cx="154.6" cy="283.7" r="1.7"/>
			<circle fill="#005EFF" cx="362.4" cy="136.2" r="1.4"/>
			<circle fill="#005EFF" cx="468" cy="163.1" r="4"/>
			<circle fill="#005EFF" cx="321.3" cy="171.6" r="3.7"/>
			<circle fill="#005EFF" cx="224.6" cy="224.7" r="1.8"/>
			<circle fill="#005EFF" cx="432.7" cy="105.6" r="2.2"/>
			<circle fill="#005EFF" cx="429.3" cy="263.8" r="4.2"/>
			<circle fill="#005EFF" cx="520.3" cy="211.4" r="2.7"/>
			<circle fill="#0071D6" cx="479.3" cy="213.9" r="2.1"/>
			<circle fill="#0071D6" cx="365.1" cy="210.8" r="2.5"/>
			<circle fill="#0071D6" cx="187.2" cy="269.6" r="3.6"/>
			<circle fill="#0071D6" cx="348.9" cy="277.8" r="1.6"/>
			<circle fill="#0071D6" cx="494.2" cy="38.7" r="1.6"/>
			<circle fill="#0071D6" cx="396.7" cy="66.2" r="2.1"/>
			<circle fill="#0071D6" cx="278.1" cy="280.5" r="3.9"/>
			<circle fill="#009BF4" cx="274.4" cy="221.6" r="1.4"/>
			<circle fill="#009BF4" cx="275.4" cy="176.1" r="1.9"/>
			<circle fill="#009BF4" cx="332.7" cy="118.5" r="2.5"/>
			<circle fill="#009BF4" cx="378.4" cy="246.9" r="3"/>
			<circle fill="#009BF4" cx="448" cy="66.8" r="1.1"/>
			<circle fill="#009BF4" cx="306.9" cy="271.9" r="2.3"/>
			<circle fill="#009BF4" cx="419" cy="163.9" r="2.2"/>
		</g>
		<g clip-path="url(#SVGID_3_)">
			<g>
				<path fill="#C7C7C7" d="M508,25.2C508,25.2,508,25.2,508,25.2l-47.1-8.8c0,0-0.1,0-0.1-0.1c0,0,0-0.1,0-0.1l46.5-39.7
					c0,0,0.1,0,0.1,0c0,0,0.1,0.1,0.1,0.1l0.6,48.5C508.1,25.1,508.1,25.2,508,25.2C508.1,25.2,508,25.2,508,25.2z M461.2,16.3
					l46.7,8.7l-0.6-48L461.2,16.3z"/>
			</g>
			<g>
				<path fill="#C7C7C7" d="M415.5,73c0,0-0.1,0-0.1-0.1c0,0,0-0.1,0-0.1l17.4-36.7c0,0,0.1-0.1,0.1-0.1c0,0,0.1,0,0.1,0l23.1,30.4
					c0,0,0,0.1,0,0.1c0,0-0.1,0.1-0.1,0.1L415.5,73C415.5,73,415.5,73,415.5,73z M433,36.4l-17.3,36.3l40.1-6.2L433,36.4z"/>
			</g>
			<g>
				<path fill="#C7C7C7" d="M456,66.7C456,66.7,455.9,66.7,456,66.7c-0.1-0.1-0.1-0.1-0.1-0.1l4.9-50.2c0-0.1,0-0.1,0.1-0.1
					c0,0,0.1,0,0.1,0l35.1,45.6c0,0,0,0.1,0,0.1c0,0-0.1,0.1-0.1,0.1L456,66.7C456,66.7,456,66.7,456,66.7z M461,16.7l-4.9,49.8
					l39.6-4.6L461,16.7z"/>
			</g>
			<g>
				<path fill="#C7C7C7" d="M456,66.7C456,66.7,455.9,66.7,456,66.7l-23.2-30.4c0,0,0-0.1,0-0.1c0,0,0-0.1,0.1-0.1l28-19.8
					c0,0,0.1,0,0.1,0c0,0,0.1,0.1,0.1,0.1l-4.9,50.2C456.1,66.6,456.1,66.7,456,66.7C456,66.7,456,66.7,456,66.7z M433.1,36.2
					l22.8,30l4.9-49.6L433.1,36.2z"/>
			</g>
			<g>
				<path fill="#C7C7C7" d="M527,65.2C527,65.2,527,65.2,527,65.2L496,62c0,0-0.1,0-0.1-0.1c0,0,0-0.1,0-0.1l12-36.8
					c0,0,0.1-0.1,0.1-0.1c0.1,0,0.1,0,0.1,0.1l19,40c0,0,0,0.1,0,0.1C527.1,65.2,527.1,65.2,527,65.2z M496.1,61.8l30.7,3.2
					L508,25.4L496.1,61.8z"/>
			</g>
			<g>
				<path fill="#C7C7C7" d="M496,62C495.9,62,495.9,62,496,62l-35.2-45.6c0,0,0-0.1,0-0.1c0,0,0.1-0.1,0.1-0.1L508,25
					c0,0,0.1,0,0.1,0.1s0,0.1,0,0.1l-12,36.8C496.1,62,496,62,496,62C496,62,496,62,496,62z M461.2,16.5l34.7,45.1l11.9-36.4
					L461.2,16.5z"/>
			</g>
			<g>
				<path fill="#C7C7C7" d="M429.9,91.8C429.9,91.8,429.8,91.8,429.9,91.8l-34.7-7.1c-0.1,0-0.1-0.1-0.1-0.1c0-0.1,0-0.1,0.1-0.1
					l20.3-11.6c0.1,0,0.1,0,0.2,0L430,91.6c0,0,0,0.1,0,0.1C429.9,91.7,429.9,91.8,429.9,91.8z M395.5,84.4l34,7L415.5,73
					L395.5,84.4z"/>
			</g>
			<g>
				<path fill="#C7C7C7" d="M429.9,91.8c0,0-0.1,0-0.1-0.1c0,0,0-0.1,0-0.1l26.1-25.1c0,0,0.1,0,0.1,0c0,0,0.1,0,0.1,0.1l8.1,20.4
					c0,0,0,0.1,0,0.1c0,0-0.1,0.1-0.1,0.1L429.9,91.8C429.9,91.8,429.9,91.8,429.9,91.8z M456,66.8l-25.7,24.7l33.7-4.5L456,66.8z"
					/>
			</g>
			<g>
				<path fill="#C7C7C7" d="M429.9,91.8C429.9,91.8,429.9,91.8,429.9,91.8C429.8,91.8,429.8,91.7,429.9,91.8l-14.5-18.8
					c0,0,0-0.1,0-0.1c0,0,0.1-0.1,0.1-0.1l40.5-6.3c0.1,0,0.1,0,0.1,0.1c0,0,0,0.1,0,0.1L429.9,91.8
					C429.9,91.7,429.9,91.8,429.9,91.8z M415.7,72.9l14.1,18.5l25.8-24.7L415.7,72.9z"/>
			</g>
			<g>
				<path fill="#C7C7C7" d="M475.8,92C475.7,92,475.7,92,475.8,92L464,87.1c0,0-0.1-0.1-0.1-0.1c0,0,0-0.1,0-0.1l31.9-25.1
					c0,0,0.1,0,0.2,0c0,0,0.1,0.1,0,0.2l-20.2,30C475.8,92,475.8,92,475.8,92z M464.3,87l11.4,4.7l19.7-29.2L464.3,87z"/>
			</g>
			<g>
				<path fill="#C7C7C7" d="M464.1,87.1C464,87.1,464,87.1,464.1,87.1c-0.1,0-0.1,0-0.1-0.1l-8.1-20.4c0,0,0-0.1,0-0.1
					c0,0,0.1-0.1,0.1-0.1l40-4.7c0.1,0,0.1,0,0.1,0.1c0,0.1,0,0.1,0,0.1L464.1,87.1C464.1,87.1,464.1,87.1,464.1,87.1z M456.2,66.7
					l7.9,20.1l31.4-24.7L456.2,66.7z"/>
			</g>
			<g>
				<path fill="#C7C7C7" d="M475.8,92c-0.1,0-0.1,0-0.1-0.1c0-0.1,0-0.1,0.1-0.1L527,65c0,0,0.1,0,0.1,0c0,0,0,0.1,0,0.1L515,91.2
					c0,0-0.1,0.1-0.1,0.1L475.8,92C475.8,92,475.8,92,475.8,92z M526.8,65.4l-50.5,26.4l38.6-0.7L526.8,65.4z"/>
			</g>
			<g>
				<path fill="#C7C7C7" d="M475.8,92C475.7,92,475.7,92,475.8,92c-0.1-0.1-0.1-0.1-0.1-0.2l20.2-30c0,0,0.1-0.1,0.1-0.1l31.1,3.2
					c0.1,0,0.1,0,0.1,0.1c0,0.1,0,0.1-0.1,0.1L475.8,92C475.8,92,475.8,92,475.8,92z M496,62l-19.9,29.5l50.5-26.4L496,62z"/>
			</g>
			<g>
				<path fill="#C7C7C7" d="M378.9,137.1C378.9,137.1,378.9,137.1,378.9,137.1l-35.6-13.5c0,0-0.1-0.1-0.1-0.1c0,0,0-0.1,0-0.1
					l51.8-39c0,0,0.1,0,0.1,0c0,0,0.1,0.1,0,0.1L379,137C379,137,379,137.1,378.9,137.1C378.9,137.1,378.9,137.1,378.9,137.1z
					 M343.6,123.5l35.2,13.3l16.1-52L343.6,123.5z"/>
			</g>
			<g>
				<path fill="#C7C7C7" d="M378.9,137.1c0,0-0.1,0-0.1-0.1c0-0.1,0-0.1,0-0.2l51-45.3c0,0,0.1,0,0.2,0c0,0,0.1,0.1,0,0.2
					l-17.6,34.7c0,0,0,0.1-0.1,0.1L378.9,137.1C378.9,137.1,378.9,137.1,378.9,137.1z M429.4,92.2l-50,44.5l32.7-10.5L429.4,92.2z"
					/>
			</g>
			<g>
				<path fill="#C7C7C7" d="M378.9,137.1C378.9,137.1,378.9,137.1,378.9,137.1c-0.1-0.1-0.1-0.1-0.1-0.2l16.3-52.5
					c0-0.1,0.1-0.1,0.1-0.1l34.7,7.1c0,0,0.1,0,0.1,0.1c0,0,0,0.1,0,0.1L378.9,137.1C379,137.1,378.9,137.1,378.9,137.1z
					 M395.3,84.6l-16.1,51.9l50.4-44.9L395.3,84.6z"/>
			</g>
			<g>
				<path fill="#C7C7C7" d="M448.3,129.3C448.3,129.3,448.3,129.3,448.3,129.3l-36-2.9c-0.1,0-0.1,0-0.1-0.1c0,0,0-0.1,0-0.1
					L464,86.9c0,0,0.1,0,0.2,0c0,0,0.1,0.1,0,0.1l-15.8,42.1C448.4,129.2,448.3,129.3,448.3,129.3z M412.6,126.2l35.6,2.8l15.6-41.6
					L412.6,126.2z"/>
			</g>
			<g>
				<path fill="#C7C7C7" d="M412.3,126.4C412.2,126.4,412.2,126.4,412.3,126.4c-0.1-0.1-0.1-0.1-0.1-0.2l17.6-34.7
					c0,0,0.1-0.1,0.1-0.1l34.2-4.6c0.1,0,0.1,0,0.1,0.1c0,0.1,0,0.1,0,0.1L412.3,126.4C412.3,126.4,412.3,126.4,412.3,126.4z
					 M429.9,91.7l-17.3,34.1l51-38.7L429.9,91.7z"/>
			</g>
			<g>
				<path fill="#C7C7C7" d="M468.8,143.2C468.8,143.2,468.8,143.2,468.8,143.2l-20.6-13.9c0,0,0,0-0.1-0.1c0,0,0-0.1,0-0.1
					l27.5-37.3c0,0,0.1-0.1,0.1,0c0.1,0,0.1,0.1,0.1,0.1l-6.9,51.2C468.9,143.1,468.9,143.2,468.8,143.2
					C468.9,143.2,468.8,143.2,468.8,143.2z M448.5,129.1l20.3,13.7l6.8-50.5L448.5,129.1z"/>
			</g>
			<g>
				<path fill="#C7C7C7" d="M448.3,129.3C448.3,129.3,448.2,129.3,448.3,129.3c-0.1,0-0.1-0.1-0.1-0.2L463.9,87c0,0,0-0.1,0.1-0.1
					c0,0,0.1,0,0.1,0l11.7,4.9c0,0,0.1,0,0.1,0.1c0,0,0,0.1,0,0.1l-27.5,37.3C448.4,129.3,448.3,129.3,448.3,129.3z M464.1,87.2
					l-15.4,41.2l26.9-36.4L464.1,87.2z"/>
			</g>
			<g>
				<path fill="#C7C7C7" d="M468.8,143.2c0,0-0.1,0-0.1-0.1c0,0,0-0.1,0-0.2l46.1-51.9c0,0,0.1,0,0.1,0c0,0,0.1,0,0.1,0.1l20.3,30.4
					c0,0,0,0.1,0,0.1c0,0,0,0.1-0.1,0.1L468.8,143.2C468.8,143.2,468.8,143.2,468.8,143.2z M514.9,91.4l-45.7,51.4l65.8-21.3
					L514.9,91.4z"/>
			</g>
			<g>
				<path fill="#C7C7C7" d="M468.8,143.2C468.8,143.2,468.8,143.2,468.8,143.2c-0.1,0-0.1-0.1-0.1-0.1l6.9-51.2
					c0-0.1,0.1-0.1,0.1-0.1l39.2-0.7c0,0,0.1,0,0.1,0.1c0,0,0,0.1,0,0.1L468.8,143.2C468.9,143.2,468.9,143.2,468.8,143.2z
					 M475.9,92l-6.9,50.7l45.6-51.4L475.9,92z"/>
			</g>
			<g>
				<path fill="#C7C7C7" d="M305.5,188.7C305.5,188.7,305.4,188.7,305.5,188.7c-0.1-0.1-0.1-0.1-0.1-0.2l37.9-65.1
					c0-0.1,0.1-0.1,0.1-0.1c0.1,0,0.1,0.1,0.1,0.1l-4.1,45.9c0,0,0,0.1-0.1,0.1L305.5,188.7C305.6,188.7,305.5,188.7,305.5,188.7z
					 M343.2,124l-37.3,64.2l33.3-18.9L343.2,124z"/>
			</g>
			<g>
				<path fill="#C7C7C7" d="M371,181.4C370.9,181.4,370.9,181.4,371,181.4l-31.7-11.9c0,0-0.1-0.1-0.1-0.1c0,0,0-0.1,0-0.1
					l39.6-32.4c0,0,0.1,0,0.1,0c0,0,0.1,0.1,0.1,0.1l-7.9,44.4C371.1,181.4,371.1,181.4,371,181.4C371,181.4,371,181.4,371,181.4z
					 M339.5,169.4l31.3,11.8l7.9-43.9L339.5,169.4z"/>
			</g>
			<g>
				<path fill="#C7C7C7" d="M339.3,169.5C339.3,169.5,339.2,169.5,339.3,169.5c-0.1,0-0.1-0.1-0.1-0.1l4.1-45.9c0,0,0-0.1,0.1-0.1
					c0,0,0.1,0,0.1,0l35.5,13.5c0,0,0.1,0.1,0.1,0.1c0,0,0,0.1,0,0.1L339.3,169.5C339.3,169.5,339.3,169.5,339.3,169.5z
					 M343.5,123.7l-4.1,45.5l39.2-32.1L343.5,123.7z"/>
			</g>
			<g>
				<path fill="#C7C7C7" d="M371,181.4C370.9,181.4,370.9,181.4,371,181.4c-0.1-0.1-0.1-0.1-0.1-0.2l41.3-55c0,0,0.1-0.1,0.2,0
					c0.1,0,0.1,0.1,0.1,0.2l-10.7,30.6c0,0,0,0,0,0.1L371,181.4C371,181.4,371,181.4,371,181.4z M411.9,127l-40.2,53.6l29.8-23.8
					L411.9,127z"/>
			</g>
			<g>
				<path fill="#C7C7C7" d="M371,181.4C370.9,181.4,370.9,181.4,371,181.4c-0.1,0-0.1-0.1-0.1-0.1l7.9-44.4c0,0,0-0.1,0.1-0.1
					l33.4-10.7c0.1,0,0.1,0,0.1,0c0,0,0,0.1,0,0.1l-41.3,55C371,181.4,371,181.4,371,181.4z M379,137.1l-7.8,43.8l40.7-54.3
					L379,137.1z"/>
			</g>
			<g>
				<path fill="#C7C7C7" d="M458.3,158C458.3,158,458.3,158,458.3,158l-56.8-1c-0.1,0-0.1,0-0.1-0.1c0-0.1,0-0.1,0.1-0.1l46.7-27.7
					c0,0,0.1,0,0.1,0c0,0,0.1,0,0.1,0.1l10.1,28.7c0,0,0,0.1,0,0.1C458.4,158,458.4,158,458.3,158z M402,156.8l56.2,1l-10-28.4
					L402,156.8z"/>
			</g>
			<g>
				<path fill="#C7C7C7" d="M401.6,157C401.5,157,401.5,157,401.6,157c-0.1-0.1-0.1-0.1-0.1-0.2l10.7-30.6c0-0.1,0.1-0.1,0.1-0.1
					l36,2.9c0.1,0,0.1,0,0.1,0.1c0,0.1,0,0.1-0.1,0.1L401.6,157C401.6,157,401.6,157,401.6,157z M412.3,126.4l-10.6,30.2l46.1-27.4
					L412.3,126.4z"/>
			</g>
			<g>
				<path fill="#C7C7C7" d="M483.1,160.4C483.1,160.4,483.1,160.4,483.1,160.4l-24.8-2.4c0,0-0.1,0-0.1-0.1c0,0,0-0.1,0-0.1
					l10.5-14.8c0,0,0.1-0.1,0.1-0.1c0,0,0.1,0,0.1,0l14.3,17.2c0,0,0,0.1,0,0.1C483.2,160.4,483.2,160.4,483.1,160.4z M458.6,157.8
					l24.3,2.4l-14-16.9L458.6,157.8z"/>
			</g>
			<g>
				<path fill="#C7C7C7" d="M458.3,158C458.3,158,458.3,158,458.3,158c-0.1,0-0.1,0-0.1-0.1l-10.1-28.7c0-0.1,0-0.1,0-0.1
					c0,0,0.1,0,0.1,0l20.5,13.9c0,0,0,0,0.1,0.1c0,0,0,0.1,0,0.1l-10.5,14.8C458.4,158,458.4,158,458.3,158z M448.5,129.5l9.9,28.1
					l10.3-14.5L448.5,129.5z"/>
			</g>
			<g>
				<path fill="#C7C7C7" d="M483.1,160.4c0,0-0.1,0-0.1-0.1c0-0.1,0-0.1,0-0.2l52.1-38.7c0,0,0.1,0,0.2,0c0,0,0.1,0.1,0,0.2
					l-21.7,33.1c0,0,0,0-0.1,0.1L483.1,160.4C483.1,160.4,483.1,160.4,483.1,160.4z M534.7,122.1l-51.1,38l29.8-5.5L534.7,122.1z"/>
			</g>
			<g>
				<path fill="#C7C7C7" d="M483.1,160.4C483.1,160.4,483.1,160.4,483.1,160.4l-14.4-17.3c0,0,0-0.1,0-0.1c0,0,0-0.1,0.1-0.1
					l66.4-21.5c0.1,0,0.1,0,0.1,0.1c0,0.1,0,0.1,0,0.2L483.1,160.4C483.2,160.4,483.2,160.4,483.1,160.4z M469,143.1l14.1,17
					l51.4-38.2L469,143.1z"/>
			</g>
			<g>
				<path fill="#C7C7C7" d="M268.4,213.3c-0.1,0-0.1,0-0.1-0.1c0-0.1,0-0.1,0-0.1l37.1-24.6c0,0,0.1,0,0.2,0l17.1,16.9
					c0,0,0,0.1,0,0.1c0,0-0.1,0.1-0.1,0.1L268.4,213.3C268.4,213.3,268.4,213.3,268.4,213.3z M305.5,188.8L269,213l53.4-7.6
					L305.5,188.8z"/>
			</g>
			<g>
				<path fill="#C7C7C7" d="M322.6,205.6C322.5,205.6,322.5,205.6,322.6,205.6c-0.1-0.1-0.1-0.1-0.1-0.2l16.7-36.1
					c0,0,0.1-0.1,0.1-0.1c0.1,0,0.1,0,0.1,0.1l8.1,29.2c0,0.1,0,0.1-0.1,0.2L322.6,205.6C322.6,205.6,322.6,205.6,322.6,205.6z
					 M339.2,169.8l-16.4,35.5l24.4-6.7L339.2,169.8z"/>
			</g>
			<g>
				<path fill="#C7C7C7" d="M322.6,205.6C322.5,205.6,322.5,205.6,322.6,205.6l-17.2-16.9c0,0,0-0.1,0-0.1s0-0.1,0.1-0.1l33.8-19.2
					c0,0,0.1,0,0.1,0c0,0,0.1,0.1,0,0.1l-16.7,36.1C322.7,205.6,322.6,205.6,322.6,205.6C322.6,205.6,322.6,205.6,322.6,205.6z
					 M305.7,188.6l16.8,16.6l16.5-35.6L305.7,188.6z"/>
			</g>
			<g>
				<path fill="#C7C7C7" d="M389.4,207.3C389.4,207.3,389.4,207.3,389.4,207.3l-42.1-8.5c0,0-0.1,0-0.1-0.1c0,0,0-0.1,0-0.1
					l23.6-17.3c0,0,0.1,0,0.1,0c0,0,0.1,0,0.1,0.1l18.5,25.8c0,0,0,0.1,0,0.1C389.5,207.3,389.5,207.3,389.4,207.3z M347.6,198.6
					l41.5,8.4l-18.2-25.5L347.6,198.6z"/>
			</g>
			<g>
				<path fill="#C7C7C7" d="M347.3,198.8C347.3,198.8,347.3,198.8,347.3,198.8c-0.1,0-0.1-0.1-0.1-0.1l-8.1-29.2c0,0,0-0.1,0-0.1
					c0,0,0.1,0,0.1,0l31.7,11.9c0,0,0.1,0.1,0.1,0.1c0,0,0,0.1-0.1,0.1L347.3,198.8C347.4,198.8,347.4,198.8,347.3,198.8z
					 M339.5,169.6l8,28.8l23.3-17.1L339.5,169.6z"/>
			</g>
			<g>
				<path fill="#C7C7C7" d="M389.4,207.3C389.4,207.3,389.4,207.3,389.4,207.3c-0.1-0.1-0.1-0.1-0.1-0.2l12.1-50.3
					c0-0.1,0.1-0.1,0.1-0.1c0.1,0,0.1,0.1,0.1,0.1l-5.1,47.8c0,0,0,0.1-0.1,0.1L389.4,207.3C389.4,207.3,389.4,207.3,389.4,207.3z
					 M401.2,158.8L389.6,207l6.8-2.4L401.2,158.8z"/>
			</g>
			<g>
				<path fill="#C7C7C7" d="M389.4,207.3c0,0-0.1,0-0.1-0.1l-18.5-25.8c0-0.1,0-0.1,0-0.2l30.6-24.4c0,0,0.1,0,0.1,0
					c0,0,0.1,0.1,0.1,0.1l-12.1,50.3C389.5,207.2,389.5,207.3,389.4,207.3C389.4,207.3,389.4,207.3,389.4,207.3z M371.1,181.3
					l18.2,25.5l12-49.6L371.1,181.3z"/>
			</g>
			<g>
				<path fill="#C7C7C7" d="M451,209.8C451,209.8,451,209.8,451,209.8l-54.5-5c-0.1,0-0.1,0-0.1-0.1c0,0,0-0.1,0-0.1l61.9-46.8
					c0,0,0.1,0,0.1,0c0,0,0.1,0.1,0.1,0.1l-7.3,51.8C451.1,209.7,451.1,209.8,451,209.8z M396.8,204.6l54.1,4.9l7.3-51.4
					L396.8,204.6z"/>
			</g>
			<g>
				<path fill="#C7C7C7" d="M396.5,204.8C396.4,204.8,396.4,204.8,396.5,204.8c-0.1,0-0.1-0.1-0.1-0.1l5.1-47.8
					c0-0.1,0.1-0.1,0.1-0.1l56.8,1c0.1,0,0.1,0,0.1,0.1c0,0.1,0,0.1,0,0.1L396.5,204.8C396.5,204.8,396.5,204.8,396.5,204.8z
					 M401.7,157l-5.1,47.4L458,158L401.7,157z"/>
			</g>
			<g>
				<path fill="#C7C7C7" d="M451,209.8c0,0-0.1,0-0.1-0.1c0,0,0-0.1,0-0.1l32.1-49.4c0,0,0.1-0.1,0.1-0.1c0.1,0,0.1,0.1,0.1,0.1
					l-4.2,47.2c0,0.1-0.1,0.1-0.1,0.1L451,209.8C451,209.8,451,209.8,451,209.8z M483,160.8l-31.7,48.7l27.6-2.2L483,160.8z"/>
			</g>
			<g>
				<path fill="#C7C7C7" d="M451,209.8C451,209.8,451,209.8,451,209.8c-0.1,0-0.1-0.1-0.1-0.1l7.3-51.8c0-0.1,0.1-0.1,0.1-0.1
					l24.8,2.4c0,0,0.1,0,0.1,0.1c0,0,0,0.1,0,0.1l-32.1,49.4C451.1,209.8,451,209.8,451,209.8z M458.4,158l-7.3,51.1l31.7-48.7
					L458.4,158z"/>
			</g>
			<g>
				<path fill="#C7C7C7" d="M516.2,215.8C516.2,215.8,516.2,215.8,516.2,215.8l-37.3-8.2c0,0-0.1,0-0.1-0.1c0,0,0-0.1,0-0.1
					l34.5-52.8c0,0,0.1-0.1,0.1-0.1c0.1,0,0.1,0.1,0.1,0.1l2.7,61C516.3,215.7,516.3,215.8,516.2,215.8
					C516.3,215.8,516.2,215.8,516.2,215.8z M479.2,207.4l36.9,8.1l-2.7-60.5L479.2,207.4z"/>
			</g>
			<g>
				<path fill="#C7C7C7" d="M479,207.6C478.9,207.6,478.9,207.6,479,207.6c-0.1,0-0.1-0.1-0.1-0.1l4.2-47.2c0-0.1,0-0.1,0.1-0.1
					l30.3-5.6c0,0,0.1,0,0.1,0.1c0,0,0,0.1,0,0.1l-34.5,52.8C479,207.6,479,207.6,479,207.6z M483.2,160.4l-4.1,46.6l34.1-52.1
					L483.2,160.4z"/>
			</g>
			<g>
				<path fill="#C7C7C7" d="M245.6,246.2c0,0-0.1,0-0.1-0.1c0,0,0-0.1,0-0.1l22.9-32.9c0,0,0.1,0,0.1-0.1c0,0,0.1,0,0.1,0.1
					l16.6,26.4c0,0,0,0.1,0,0.1c0,0-0.1,0.1-0.1,0.1L245.6,246.2C245.6,246.2,245.6,246.2,245.6,246.2z M268.4,213.4l-22.6,32.5
					l39-6.4L268.4,213.4z"/>
			</g>
			<g>
				<path fill="#C7C7C7" d="M304.2,240.7C304.2,240.7,304.2,240.7,304.2,240.7l-19.1-0.9c-0.1,0-0.1,0-0.1-0.1c0,0,0-0.1,0-0.1
					l37.5-34.1c0,0,0.1,0,0.2,0c0,0,0.1,0.1,0,0.2l-18.4,35.1C304.3,240.7,304.2,240.7,304.2,240.7z M285.4,239.5l18.7,0.9l18-34.4
					L285.4,239.5z"/>
			</g>
			<g>
				<path fill="#C7C7C7" d="M285.1,239.7C285.1,239.7,285.1,239.7,285.1,239.7c-0.1,0-0.1,0-0.1-0.1l-16.6-26.4c0,0,0-0.1,0-0.1
					c0,0,0.1-0.1,0.1-0.1l54.2-7.7c0.1,0,0.1,0,0.1,0.1c0,0,0,0.1,0,0.1L285.1,239.7C285.1,239.7,285.1,239.7,285.1,239.7z
					 M268.6,213.3l16.5,26.1l37.1-33.7L268.6,213.3z"/>
			</g>
			<g>
				<path fill="#C7C7C7" d="M304.2,240.7c0,0-0.1,0-0.1-0.1c0,0,0-0.1,0-0.1l43.2-41.9c0,0,0.1,0,0.1,0c0,0,0.1,0,0.1,0.1l9.9,29.5
					c0,0,0,0.1,0,0.1c0,0,0,0.1-0.1,0.1L304.2,240.7C304.2,240.7,304.2,240.7,304.2,240.7z M347.3,198.9l-42.7,41.5l52.5-12.2
					L347.3,198.9z"/>
			</g>
			<g>
				<path fill="#C7C7C7" d="M304.2,240.7C304.2,240.7,304.1,240.7,304.2,240.7c-0.1-0.1-0.1-0.1-0.1-0.2l18.4-35.1
					c0,0,0-0.1,0.1-0.1l24.8-6.8c0.1,0,0.1,0,0.1,0.1c0,0,0,0.1,0,0.2L304.2,240.7C304.2,240.7,304.2,240.7,304.2,240.7z
					 M322.7,205.6l-18,34.3l42.2-41L322.7,205.6z"/>
			</g>
			<g>
				<path fill="#C7C7C7" d="M382.2,245.1C382.2,245.1,382.2,245.1,382.2,245.1l-25.1-16.8c0,0-0.1-0.1-0.1-0.1c0,0,0-0.1,0.1-0.1
					l32.2-21c0,0,0.1,0,0.1,0c0,0,0.1,0.1,0.1,0.1l-7.2,37.8C382.4,245,382.3,245,382.2,245.1C382.3,245.1,382.3,245.1,382.2,245.1z
					 M357.5,228.2l24.7,16.5l7.1-37.3L357.5,228.2z"/>
			</g>
			<g>
				<path fill="#C7C7C7" d="M357.2,228.3C357.2,228.3,357.2,228.3,357.2,228.3c-0.1,0-0.1,0-0.1-0.1l-9.9-29.5c0,0,0-0.1,0-0.1
					c0,0,0.1,0,0.1,0l42.1,8.5c0,0,0.1,0,0.1,0.1c0,0,0,0.1-0.1,0.1L357.2,228.3C357.3,228.3,357.3,228.3,357.2,228.3z M347.5,198.8
					l9.8,29.2l31.8-20.8L347.5,198.8z"/>
			</g>
			<g>
				<path fill="#C7C7C7" d="M425.9,257.2C425.9,257.2,425.9,257.2,425.9,257.2l-43.7-12.1c0,0-0.1,0-0.1-0.1c0,0,0-0.1,0-0.1
					l14.2-40.3c0,0,0.1-0.1,0.1-0.1c0,0,0.1,0,0.1,0.1L426,257C426,257,426,257.1,425.9,257.2C426,257.2,425.9,257.2,425.9,257.2z
					 M382.4,244.9l43.2,12L396.5,205L382.4,244.9z"/>
			</g>
			<g>
				<path fill="#C7C7C7" d="M382.2,245.1C382.2,245.1,382.2,245.1,382.2,245.1c-0.1,0-0.1-0.1-0.1-0.1l7.2-37.8c0,0,0-0.1,0.1-0.1
					l7-2.5c0,0,0.1,0,0.1,0c0,0,0,0.1,0,0.1L382.4,245C382.3,245,382.3,245.1,382.2,245.1z M389.5,207.2l-6.9,36.1l13.6-38.5
					L389.5,207.2z"/>
			</g>
			<g>
				<path fill="#C7C7C7" d="M425.9,257.2C425.9,257.2,425.8,257.2,425.9,257.2c-0.1-0.1-0.1-0.1-0.1-0.2l25.1-47.4
					c0-0.1,0.1-0.1,0.1-0.1c0.1,0,0.1,0.1,0.1,0.1l-5.9,39.3c0,0,0,0.1-0.1,0.1L425.9,257.2C425.9,257.2,425.9,257.2,425.9,257.2z
					 M450.8,210.4l-24.6,46.4l18.8-7.9L450.8,210.4z"/>
			</g>
			<g>
				<path fill="#C7C7C7" d="M425.9,257.2c0,0-0.1,0-0.1-0.1l-29.4-52.4c0,0,0-0.1,0-0.1c0,0,0.1-0.1,0.1-0.1l54.5,5
					c0,0,0.1,0,0.1,0.1c0,0,0,0.1,0,0.1L426,257.1C426,257.1,426,257.2,425.9,257.2z M396.7,204.8l29.2,52l24.9-47L396.7,204.8z"/>
			</g>
			<g>
				<path fill="#C7C7C7" d="M445.1,249.1c0,0-0.1,0-0.1-0.1c0,0,0-0.1,0-0.1l33.9-41.5c0,0,0.1-0.1,0.1,0c0,0,0.1,0,0.1,0l23.9,30.9
					c0,0,0,0.1,0,0.1c0,0-0.1,0.1-0.1,0.1L445.1,249.1C445.1,249.1,445.1,249.1,445.1,249.1z M478.9,207.7l-33.6,41.1l57.2-10.5
					L478.9,207.7z"/>
			</g>
			<g>
				<path fill="#C7C7C7" d="M445.1,249.1C445,249.1,445,249.1,445.1,249.1c-0.1,0-0.1-0.1-0.1-0.1l5.9-39.3c0-0.1,0.1-0.1,0.1-0.1
					l28-2.2c0.1,0,0.1,0,0.1,0.1c0,0,0,0.1,0,0.1L445.1,249.1C445.1,249.1,445.1,249.1,445.1,249.1z M451.1,209.8l-5.9,38.8
					l33.4-40.9L451.1,209.8z"/>
			</g>
			<g>
				<path fill="#C7C7C7" d="M508.9,242.9C508.8,242.9,508.8,242.9,508.9,242.9l-6.1-4.4c-0.1,0-0.1-0.1,0-0.2l13.4-22.7
					c0-0.1,0.1-0.1,0.2-0.1c0.1,0,0.1,0.1,0.1,0.1l-7.3,27.1C509,242.8,508.9,242.9,508.9,242.9
					C508.9,242.9,508.9,242.9,508.9,242.9z M503,238.4l5.8,4.2l7.1-26L503,238.4z"/>
			</g>
			<g>
				<path fill="#C7C7C7" d="M502.8,238.5C502.8,238.5,502.8,238.5,502.8,238.5l-24-31c0,0,0-0.1,0-0.1c0,0,0.1-0.1,0.1-0.1l37.3,8.2
					c0,0,0.1,0,0.1,0.1c0,0,0,0.1,0,0.1l-13.4,22.7C502.9,238.5,502.9,238.5,502.8,238.5C502.8,238.5,502.8,238.5,502.8,238.5z
					 M479.3,207.7l23.6,30.5l13.2-22.4L479.3,207.7z"/>
			</g>
			<g>
				<path fill="#C7C7C7" d="M209.2,276.7c-0.1,0-0.1,0-0.1-0.1c0-0.1,0-0.1,0.1-0.2l75.9-36.9c0.1,0,0.1,0,0.2,0c0,0,0,0.1,0,0.2
					l0,0L264,265.9c0,0,0,0-0.1,0L209.2,276.7C209.2,276.7,209.2,276.7,209.2,276.7z M284.6,240l-74.5,36.3l53.7-10.6L284.6,240z"/>
			</g>
			<g>
				<path fill="#C7C7C7" d="M209.2,276.7c0,0-0.1,0-0.1-0.1c0-0.1,0-0.1,0-0.2l36.4-30.4c0,0,0,0,0.1,0l39.5-6.5c0,0,0.1,0,0.1,0
					c0,0,0,0.1,0,0.2l0,0c0,0,0,0,0,0L209.2,276.7C209.2,276.7,209.2,276.7,209.2,276.7z M245.6,246.2L210.1,276l74.2-36.1
					L245.6,246.2z"/>
			</g>
			<g>
				<path fill="#C7C7C7" d="M314.6,267.4C314.6,267.4,314.6,267.4,314.6,267.4l-50.7-1.5c-0.1,0-0.1,0-0.1-0.1c0-0.1,0-0.1,0.1-0.1
					l40.3-25.2c0,0,0.1,0,0.1,0c0,0,0.1,0,0.1,0.1l10.4,26.8c0,0,0,0.1,0,0.1C314.6,267.4,314.6,267.4,314.6,267.4z M264.3,265.7
					l50.1,1.5l-10.3-26.4L264.3,265.7z"/>
			</g>
			<g>
				<path fill="#C7C7C7" d="M263.9,265.9C263.9,265.9,263.8,265.9,263.9,265.9c-0.1-0.1-0.1-0.2-0.1-0.2l21.2-26.2
					c0,0,0.1-0.1,0.1,0l19.1,0.9c0.1,0,0.1,0,0.1,0.1c0,0.1,0,0.1-0.1,0.1L263.9,265.9C263.9,265.9,263.9,265.9,263.9,265.9z
					 M285.1,239.7l-20.7,25.5l39.3-24.6L285.1,239.7z"/>
			</g>
			<g>
				<path fill="#C7C7C7" d="M340.5,286.4C340.5,286.4,340.5,286.4,340.5,286.4l-26-19c0,0,0-0.1-0.1-0.1c0,0,0-0.1,0-0.1l42.7-39.1
					c0,0,0.1,0,0.2,0c0,0,0.1,0.1,0.1,0.1l-16.7,58.1C340.6,286.3,340.6,286.4,340.5,286.4C340.5,286.4,340.5,286.4,340.5,286.4z
					 M314.8,267.3l25.7,18.8l16.5-57.5L314.8,267.3z"/>
			</g>
			<g>
				<path fill="#C7C7C7" d="M314.6,267.4C314.6,267.4,314.6,267.4,314.6,267.4c-0.1,0-0.1,0-0.1-0.1l-10.4-26.8c0,0,0-0.1,0-0.1
					c0,0,0-0.1,0.1-0.1l53-12.4c0.1,0,0.1,0,0.1,0.1c0,0.1,0,0.1,0,0.2L314.6,267.4C314.6,267.4,314.6,267.4,314.6,267.4z
					 M304.4,240.6l10.3,26.5l42.2-38.7L304.4,240.6z"/>
			</g>
			<g>
				<path fill="#C7C7C7" d="M340.5,286.4C340.5,286.4,340.4,286.4,340.5,286.4c-0.1-0.1-0.1-0.2-0.1-0.2l41.7-41.3c0,0,0.1,0,0.2,0
					c0,0,0.1,0.1,0,0.2l-7.4,18.2c0,0,0,0,0,0.1L340.5,286.4C340.6,286.4,340.5,286.4,340.5,286.4z M381.9,245.5l-40.3,40l33.2-22.4
					L381.9,245.5z"/>
			</g>
			<g>
				<path fill="#C7C7C7" d="M340.5,286.4C340.5,286.4,340.5,286.4,340.5,286.4c-0.1,0-0.1-0.1-0.1-0.2l16.7-58.1c0,0,0-0.1,0.1-0.1
					c0,0,0.1,0,0.1,0l25,16.8c0,0,0.1,0.1,0.1,0.1c0,0,0,0.1,0,0.1L340.5,286.4C340.6,286.4,340.6,286.4,340.5,286.4z M357.3,228.4
					l-16.5,57.5L382,245L357.3,228.4z"/>
			</g>
			<g>
				<path fill="#C7C7C7" d="M397.7,292.7C397.7,292.7,397.7,292.7,397.7,292.7C397.7,292.7,397.6,292.7,397.7,292.7l-23-29.5
					c0,0,0-0.1,0-0.1c0,0,0.1-0.1,0.1-0.1l51.1-6.1c0.1,0,0.1,0,0.1,0.1c0,0,0,0.1,0,0.1L397.7,292.7
					C397.8,292.7,397.8,292.7,397.7,292.7z M375.1,263.2l22.7,29.1l27.9-35.2L375.1,263.2z"/>
			</g>
			<g>
				<path fill="#C7C7C7" d="M374.8,263.3C374.8,263.3,374.8,263.2,374.8,263.3c-0.1-0.1-0.1-0.1-0.1-0.2l7.4-18.2
					c0-0.1,0.1-0.1,0.1-0.1l43.7,12.1c0.1,0,0.1,0.1,0.1,0.1c0,0.1-0.1,0.1-0.1,0.1L374.8,263.3
					C374.8,263.3,374.8,263.3,374.8,263.3z M382.3,245.1L375,263l50.2-6L382.3,245.1z"/>
			</g>
			<g>
				<path fill="#C7C7C7" d="M397.7,292.7c0,0-0.1,0-0.1-0.1c0-0.1,0-0.1,0-0.2l47.3-43.6c0,0,0.1,0,0.1,0c0,0,0.1,0,0.1,0.1l9,28.3
					c0,0,0,0.1,0,0.1c0,0,0,0.1-0.1,0.1L397.7,292.7C397.7,292.7,397.7,292.7,397.7,292.7z M445,249.2l-46.8,43.1l55.7-15.1
					L445,249.2z"/>
			</g>
			<g>
				<path fill="#C7C7C7" d="M397.7,292.7C397.7,292.7,397.7,292.7,397.7,292.7c-0.1-0.1-0.1-0.2-0.1-0.2l28.2-35.5c0,0,0,0,0,0
					l19.2-8.1c0.1,0,0.1,0,0.2,0c0,0.1,0,0.1,0,0.2L397.7,292.7C397.8,292.7,397.7,292.7,397.7,292.7z M426,257.2l-27.2,34.2
					l45.6-42L426,257.2z"/>
			</g>
			<g>
				<path fill="#C7C7C7" d="M454,277.4c0,0-0.1,0-0.1-0.1c0-0.1,0-0.1,0-0.2l48.8-38.9c0,0,0.1,0,0.2,0c0,0,0.1,0.1,0,0.2
					l-24.3,32.2c0,0,0,0-0.1,0L454,277.4C454,277.4,454,277.4,454,277.4z M502.1,239.1L454.6,277l23.9-6.6L502.1,239.1z"/>
			</g>
			<g>
				<path fill="#C7C7C7" d="M454,277.4C454,277.4,454,277.4,454,277.4c-0.1,0-0.1,0-0.1-0.1l-9-28.3c0,0,0-0.1,0-0.1
					c0,0,0-0.1,0.1-0.1l57.8-10.6c0.1,0,0.1,0,0.1,0.1c0,0.1,0,0.1,0,0.1L454,277.4C454.1,277.4,454,277.4,454,277.4z M445.2,249.1
					l8.9,28l48.3-38.5L445.2,249.1z"/>
			</g>
			<g>
				<path fill="#C7C7C7" d="M478.5,270.7c-0.1,0-0.1,0-0.1-0.1c0,0,0-0.1,0-0.1l30.4-27.8c0,0,0.1,0,0.1,0c0,0,0.1,0,0.1,0.1
					l14,26.2c0,0,0,0.1,0,0.1c0,0-0.1,0.1-0.1,0.1L478.5,270.7C478.5,270.7,478.5,270.7,478.5,270.7z M508.8,243l-30,27.5l43.8-1.5
					L508.8,243z"/>
			</g>
			<g>
				<path fill="#C7C7C7" d="M478.5,270.7C478.5,270.7,478.4,270.7,478.5,270.7c-0.1-0.1-0.1-0.1-0.1-0.2l24.3-32.2
					c0-0.1,0.1-0.1,0.2,0l6,4.4c0,0,0,0.1,0.1,0.1c0,0,0,0.1,0,0.1L478.5,270.7C478.6,270.7,478.5,270.7,478.5,270.7z M502.9,238.6
					l-23.4,31l29.2-26.8L502.9,238.6z"/>
			</g>
			<g>
				<path fill="#C7C7C7" d="M222.8,329.4C222.8,329.4,222.8,329.4,222.8,329.4l-49.4-25c0,0-0.1-0.1-0.1-0.1c0,0,0-0.1,0-0.1
					l35.7-27.8c0,0,0.1,0,0.1,0c0,0,0.1,0,0.1,0.1l13.6,52.7C222.9,329.3,222.9,329.4,222.8,329.4
					C222.9,329.4,222.8,329.4,222.8,329.4z M173.7,304.3l48.9,24.7l-13.5-52.3L173.7,304.3z"/>
			</g>
			<g>
				<path fill="#C7C7C7" d="M222.8,329.4c0,0-0.1,0-0.1-0.1c0,0,0-0.1,0-0.1l41.1-63.5c0,0,0.1-0.1,0.1-0.1c0.1,0,0.1,0.1,0.1,0.1
					l1.9,52.5c0,0.1,0,0.1-0.1,0.1L222.8,329.4C222.8,329.4,222.8,329.4,222.8,329.4z M263.8,266.2l-40.7,62.9l42.6-10.9
					L263.8,266.2z"/>
			</g>
			<g>
				<path fill="#C7C7C7" d="M222.8,329.4C222.8,329.4,222.8,329.4,222.8,329.4c-0.1,0-0.1,0-0.1-0.1l-13.6-52.7c0,0,0-0.1,0-0.1
					c0,0,0,0,0.1-0.1l54.7-10.8c0,0,0.1,0,0.1,0.1c0,0,0,0.1,0,0.1l-41.1,63.5C222.9,329.4,222.8,329.4,222.8,329.4z M209.4,276.7
					l13.5,52.3l40.8-63L209.4,276.7z"/>
			</g>
			<g>
				<path fill="#C7C7C7" d="M265.8,318.4c0,0-0.1,0-0.1-0.1c0,0,0-0.1,0-0.2l48.8-50.9c0,0,0.1,0,0.1,0c0,0,0.1,0,0.1,0.1l8.1,35.6
					c0,0.1,0,0.1-0.1,0.1L265.8,318.4C265.8,318.4,265.8,318.4,265.8,318.4z M314.5,267.6L266.2,318l56.3-15.2L314.5,267.6z"/>
			</g>
			<g>
				<path fill="#C7C7C7" d="M265.8,318.4C265.8,318.4,265.8,318.4,265.8,318.4c-0.1,0-0.1-0.1-0.1-0.1l-1.9-52.5c0,0,0-0.1,0-0.1
					c0,0,0.1,0,0.1,0l50.7,1.5c0,0,0.1,0,0.1,0.1c0,0,0,0.1,0,0.1L265.8,318.4C265.9,318.3,265.8,318.4,265.8,318.4z M264,265.9
					l1.9,52l48.4-50.5L264,265.9z"/>
			</g>
			<g>
				<path fill="#C7C7C7" d="M329.3,310.8C329.3,310.8,329.3,310.8,329.3,310.8l-6.8-7.8c0-0.1,0-0.1,0-0.2l17.9-16.6
					c0,0,0.1,0,0.2,0c0,0,0.1,0.1,0,0.2l-11.2,24.4C329.4,310.7,329.4,310.8,329.3,310.8C329.3,310.8,329.3,310.8,329.3,310.8z
					 M322.8,302.9l6.5,7.5l10.8-23.6L322.8,302.9z"/>
			</g>
			<g>
				<path fill="#C7C7C7" d="M322.6,303C322.6,303,322.6,303,322.6,303c-0.1,0-0.1-0.1-0.1-0.1l-8.1-35.6c0-0.1,0-0.1,0.1-0.1
					c0,0,0.1,0,0.1,0l25.9,19c0,0,0,0.1,0.1,0.1c0,0,0,0.1,0,0.1L322.6,303C322.7,303,322.7,303,322.6,303z M314.8,267.6l8,35
					l17.6-16.4L314.8,267.6z"/>
			</g>
			<g>
				<path fill="#C7C7C7" d="M329.3,310.8c0,0-0.1,0-0.1-0.1c0,0,0-0.1,0-0.1l45.5-47.5c0,0,0.1,0,0.1,0c0,0,0.1,0.1,0.1,0.1
					l5.4,43.8c0,0,0,0.1,0,0.1c0,0-0.1,0-0.1,0L329.3,310.8C329.3,310.8,329.3,310.8,329.3,310.8z M374.7,263.4l-45.1,47.1l50.4-3.7
					L374.7,263.4z"/>
			</g>
			<g>
				<path fill="#C7C7C7" d="M329.3,310.8C329.3,310.8,329.3,310.8,329.3,310.8c-0.1-0.1-0.1-0.1-0.1-0.2l11.2-24.4c0,0,0,0,0-0.1
					l34.3-23.1c0.1,0,0.1,0,0.2,0c0,0,0,0.1,0,0.2L329.3,310.8C329.4,310.8,329.4,310.8,329.3,310.8z M340.6,286.4L329.8,310
					l44.2-46.1L340.6,286.4z"/>
			</g>
			<g>
				<path fill="#C7C7C7" d="M404.9,319.7C404.9,319.7,404.9,319.7,404.9,319.7L380.2,307c0,0-0.1-0.1-0.1-0.1c0,0,0-0.1,0-0.1
					l17.5-14.4c0,0,0.1,0,0.1,0c0,0,0.1,0,0.1,0.1l7.2,27C405.1,319.6,405.1,319.7,404.9,319.7C405,319.7,405,319.7,404.9,319.7z
					 M380.5,306.9l24.3,12.5l-7.1-26.6L380.5,306.9z"/>
			</g>
			<g>
				<path fill="#C7C7C7" d="M380.2,307.1C380.2,307.1,380.2,307.1,380.2,307.1c-0.1,0-0.1-0.1-0.1-0.1l-5.4-43.8
					c0-0.1,0-0.1,0.1-0.1c0.1,0,0.1,0,0.1,0l22.9,29.4c0,0.1,0,0.1,0,0.2L380.2,307.1C380.3,307,380.3,307.1,380.2,307.1z
					 M375,263.6l5.3,43.1l17.2-14.1L375,263.6z"/>
			</g>
			<g>
				<path fill="#C7C7C7" d="M404.9,319.7c-0.1,0-0.1,0-0.1-0.1c0,0,0-0.1,0-0.1l49.1-42.3c0,0,0.1,0,0.1,0c0,0,0.1,0.1,0.1,0.1
					l2.7,41.2c0,0,0,0.1,0,0.1c0,0-0.1,0-0.1,0L404.9,319.7C404.9,319.7,404.9,319.7,404.9,319.7z M453.9,277.6l-48.6,41.9l51.3-1.1
					L453.9,277.6z"/>
			</g>
			<g>
				<path fill="#C7C7C7" d="M404.9,319.7C404.9,319.7,404.9,319.7,404.9,319.7c-0.1,0-0.1-0.1-0.1-0.1l-7.2-27c0-0.1,0-0.1,0.1-0.2
					l56.3-15.3c0.1,0,0.1,0,0.1,0.1c0,0.1,0,0.1,0,0.2L404.9,319.7C405,319.7,405,319.7,404.9,319.7z M397.9,292.7l7.1,26.7
					l48.5-41.8L397.9,292.7z"/>
			</g>
			<g>
				<path fill="#C7C7C7" d="M456.7,318.6C456.6,318.6,456.6,318.6,456.7,318.6c-0.1-0.1-0.1-0.1-0.1-0.2l21.8-48
					c0-0.1,0.1-0.1,0.1-0.1c0.1,0,0.1,0.1,0.1,0.1l1.6,42.2c0,0.1,0,0.1-0.1,0.1L456.7,318.6C456.7,318.6,456.7,318.6,456.7,318.6z
					 M478.4,271.1l-21.5,47.2l23.1-5.7L478.4,271.1z"/>
			</g>
			<g>
				<path fill="#C7C7C7" d="M456.7,318.6C456.7,318.6,456.7,318.6,456.7,318.6c-0.1,0-0.1-0.1-0.1-0.1l-2.7-41.2
					c0-0.1,0-0.1,0.1-0.1l24.5-6.7c0,0,0.1,0,0.1,0c0,0,0,0.1,0,0.1l-21.8,48C456.8,318.6,456.7,318.6,456.7,318.6z M454.1,277.4
					l2.6,40.6l21.5-47.3L454.1,277.4z"/>
			</g>
		</g>
	</g>
</g>
</svg>
