<?xml version="1.0" encoding="UTF-8"?>
<svg xmlns="http://www.w3.org/2000/svg" width="1278" height="972" viewBox="0 0 1278 972" fill="none">
  <g clip-path="url(#clip0_827_22182)">
    <path opacity="0.8" d="M5812.07 457.908L5807.76 444.605L5550.62 -347.749C5465.78 -609.215 5149.42 -709.755 4929.47 -545.247C4929.37 -545.175 4929.42 -545.206 4929.32 -545.135C4926.8 -543.252 3903.78 220.304 3507.41 515.195C3419.53 580.578 3259.89 685.123 3171.32 620.679C3123.46 585.856 3099.76 530.286 3103.33 475.284C3104.15 462.663 3107.69 450.424 3111.78 438.455L3743.13 -1410.13C3832.06 -1670.56 3638.72 -1941.3 3363.83 -1941.3H3349.87H2517.71C2243.05 -1941.3 2049.74 -1671.01 2138.19 -1410.73L2771.49 452.882C2783.98 514.71 2760.77 580.998 2706.45 620.49C2617.78 684.974 2457.95 579.955 2370.11 514.344C1974.03 218.485 952.252 -546.893 949.956 -548.612C949.869 -548.678 949.907 -548.649 949.82 -548.714C729.942 -713.728 413.081 -613.301 328.165 -351.604L323.861 -338.301L66.7208 454.053C-18.137 715.576 178.871 983.146 453.488 979.366L2410.9 952.36C2429.83 952.099 2449.02 953.23 2466.59 960.285C2510.66 977.981 2546.87 1014.3 2562.7 1063.08C2596.56 1167.37 2447.65 1286.93 2358.16 1350.31C1953.98 1636.57 907.506 2375.57 905.262 2377.15C905.177 2377.21 905.214 2377.18 905.129 2377.24C680.429 2535.63 677.944 2868.37 900.276 3030.09L911.562 3038.29L1584.8 3528.01C1806.99 3689.64 2122.07 3584.73 2203.34 3322.08L2787.19 1434.95C2813.2 1377.06 2871.18 1336.69 2938.68 1336.69C2998.16 1336.69 3050.25 1368.1 3079.55 1415.18C3086.08 1425.66 3090.28 1437.36 3093.92 1449.17L3670.8 3323.81C3751.73 3586.85 4067.12 3692.1 4289.49 3530.35L4300.78 3522.15L4974.02 3032.43C5196.15 2870.83 5193.94 2538.53 4969.72 2379.94C4969.62 2379.87 4969.66 2379.9 4969.56 2379.83C4966.93 2377.97 3922.72 1637.86 3519.24 1350.93C3429.91 1287.41 3281.01 1167.49 3314.84 1063.23C3330.17 1016 3364.62 980.426 3406.82 962.141C3425.45 954.069 3446.08 952.766 3466.38 953.077L5424.69 983.07C5699.58 987.416 5897.04 719.657 5812.07 457.908Z" fill="url(#paint0_linear_827_22182)"></path>
    <path opacity="0.5" d="M3999.49 3229.2L4002.92 3219.28L4206.88 2627.92C4274.19 2432.8 4129.96 2229.53 3923.73 2228.73C3923.61 2228.73 3923.66 2228.73 3923.54 2228.73C3920.39 2228.71 2962.45 2224.17 2591.63 2221.83C2509.38 2221.32 2366.4 2211.85 2342.42 2133.17C2329.95 2092.28 2339.57 2049.98 2364.35 2018.9C2372.23 2009.01 2382.53 2001.43 2393 1994.33L3603.23 1173.87C3774.28 1057.91 3780.72 808.167 3615.89 683.919L3607.51 677.605L3108.51 301.465C2943.82 177.319 2705.73 252.021 2641.12 448.07L2178.51 1851.83C2158.05 1894.55 2114.17 1923.81 2063.75 1922.93C1981.43 1921.52 1933.06 1786.3 1910.04 1707.26C1806.31 1350.95 1539.72 430.702 1538.92 427.949C1538.89 427.844 1538.9 427.889 1538.87 427.784C1481.59 229.478 1246.22 146.493 1077.02 265.028L1068.43 271.059L556.086 629.959C386.992 748.423 384.183 997.917 550.563 1119.78L1730.79 1984.15C1746.06 1995.34 1760.97 2007.71 1769.82 2024.45C1785.38 2053.86 1789.22 2089.37 1777.5 2123.35C1750.66 2201.19 1607.32 2205.58 1525.02 2203.14C1153.39 2192.1 192.406 2162.24 189.661 2162.15C189.557 2162.15 189.602 2162.15 189.498 2162.15C-16.8134 2155.59 -168.681 2353.97 -108.464 2551.43L-105.403 2561.45L76.9459 3159.41C137.116 3356.76 373.474 3436.27 540.931 3315.51L1744.02 2447.82C1785.79 2424.85 1838.8 2426.86 1879.27 2457.37C1913.62 2483.26 1930.69 2523.51 1928.6 2563.5C1927.95 2575.83 1924.15 2587.71 1919.95 2599.33L1420.09 3979.85C1349.73 4174.16 1491.28 4379.83 1697.73 4383.35L1708.21 4383.54L2333.26 4394.19C2539.49 4397.69 2688.37 4197.46 2625.63 4001.03C2625.59 4000.91 2625.61 4000.96 2625.57 4000.85C2624.59 3997.77 2333.17 3082.61 2220.97 2728.32C2196.12 2649.86 2161.03 2510.64 2228.44 2463.41C2256.74 2443.59 2290.35 2437.19 2321.84 2442.81C2341.83 2446.38 2359.09 2458.07 2375.11 2470.54L3529.83 3369.01C3692.7 3495.87 3932.13 3424.56 3999.49 3229.2Z" fill="url(#paint1_linear_827_22182)"></path>
  </g>
  <defs>
    <linearGradient id="paint0_linear_827_22182" x1="58.0497" y1="1.79937" x2="252.45" y2="487.799" gradientUnits="userSpaceOnUse">
      <stop stop-color="#1B2325"></stop>
      <stop offset="1" stop-color="#1B2325" stop-opacity="0"></stop>
    </linearGradient>
    <linearGradient id="paint1_linear_827_22182" x1="755.307" y1="354.849" x2="652.203" y2="734.145" gradientUnits="userSpaceOnUse">
      <stop stop-color="#1B2325"></stop>
      <stop offset="1" stop-color="#1B2325" stop-opacity="0"></stop>
    </linearGradient>
    <clipPath id="clip0_827_22182">
      <rect width="1728" height="972" fill="white" transform="translate(0.899994)"></rect>
    </clipPath>
  </defs>
</svg>
